PathFileType	4	(X/Y/Z)	C:\Users\Biomechanik\SynologyDrive\AlexP\Athlete_03\Athlete_3_25_03_31\Walking_07\marker_experimental.trc
DataRate	CameraRate	NumFrames	NumMarkers	Units	OrigDataRate	OrigDataStartFrame	OrigNumFrames
200.000000	200.000000	4	53	mm	200.000000	281	450
Frame#	Time	GLAB			RFHD			LFHD			C7			T6			SPINMOL			SPINM2			SPINM3			T12			BELTOL			BELT2			BELT3			SACROL			SACR2			SACR3			LTHOL			LTH2			LTH3			LSHAOL			LSHA2			LSHA3			LHEE			LTOE			LM5			RTHOL			RTH2			RTH3			RSHAOL			RSHA2			RSHA3			RHEE			RTOE			RM5			STRN			XIPH			LACR			LUAOL			LUA2			LUA3			LLAOL			LLA2			LLA3			LWRR			LWRU			RACR			RUAOL			RUA2			RUA3			RLAOL			RLA2			RLA3			RWRR			RWRU			
		X1	Y1	Z1	X2	Y2	Z2	X3	Y3	Z3	X4	Y4	Z4	X5	Y5	Z5	X6	Y6	Z6	X7	Y7	Z7	X8	Y8	Z8	X9	Y9	Z9	X10	Y10	Z10	X11	Y11	Z11	X12	Y12	Z12	X13	Y13	Z13	X14	Y14	Z14	X15	Y15	Z15	X16	Y16	Z16	X17	Y17	Z17	X18	Y18	Z18	X19	Y19	Z19	X20	Y20	Z20	X21	Y21	Z21	X22	Y22	Z22	X23	Y23	Z23	X24	Y24	Z24	X25	Y25	Z25	X26	Y26	Z26	X27	Y27	Z27	X28	Y28	Z28	X29	Y29	Z29	X30	Y30	Z30	X31	Y31	Z31	X32	Y32	Z32	X33	Y33	Z33	X34	Y34	Z34	X35	Y35	Z35	X36	Y36	Z36	X37	Y37	Z37	X38	Y38	Z38	X39	Y39	Z39	X40	Y40	Z40	X41	Y41	Z41	X42	Y42	Z42	X43	Y43	Z43	X44	Y44	Z44	X45	Y45	Z45	X46	Y46	Z46	X47	Y47	Z47	X48	Y48	Z48	X49	Y49	Z49	X50	Y50	Z50	X51	Y51	Z51	X52	Y52	Z52	X53	Y53	Z53	

282	1.405	1519.745239257812	1597.102416992188	241.484802246094	1472.747192382812	1627.025634765625	307.4689025878909	1478.121215820312	1625.328857421875	168.9054260253909	1283.526611328125	1450.644897460938	234.1988830566409	1224.8095703125	1279.813598632812	235.0777740478518	1217.260986328125	1239.0927734375	215.1110076904299	1215.65478515625	1231.99609375	264.9850769042971	1225.181640625	1174.820556640625	231.6785430908205	1250.023193359375	1109.133056640625	232.8755645751955	1214.528076171875	1073.328979492188	218.2011566162112	1216.748901367188	1071.161987304688	268.3983154296877	1212.947021484375	1010.936279296875	239.4020996093752	1231.321044921875	963.7954711914064	208.0336914062502	1232.024169921875	959.8683471679689	259.4299316406252	1218.518188476562	902.3341064453126	229.6260528564455	1416.755859375	691.3052368164064	18.17900657653835	1392.387817382812	618.9318237304689	38.92786788940455	1437.750610351562	634.8791503906251	24.80080032348659	1413.9541015625	399.5708618164064	20.46504020690944	1343.656494140625	368.6350097656251	41.46609497070337	1387.951049804688	345.1831970214844	34.80336380004908	1244.392211914062	213.8272552490235	145.1992340087893	1419.929077148438	81.41227722167977	138.4852142333987	1363.214965820312	77.93714904785165	48.07588577270533	1308.952514648438	696.1702880859376	400.3703918457034	1363.065063476562	639.0328369140626	404.0559692382815	1315.8251953125	636.7693481445314	388.1902160644534	1272.458618164062	345.3670959472657	367.8468933105471	1302.053344726562	272.6047973632813	364.2939147949221	1256.606323242188	287.3013305664063	350.602722167969	1215.352416992188	77.6171951293946	234.6091156005862	1426.746337890625	46.93977737426766	240.7911376953128	1373.680541992188	39.45987319946298	342.1335449218752	1453.996704101562	1352.1748046875	229.023132324219	1469.760009765625	1208.893188476562	227.8067626953128	1352.788208007812	1413.640014648438	57.81119918823267	1337.847534179688	1260.482788085938	-44.88032531738256	1322.083129882812	1199.296142578125	-64.12734985351538	1370.483032226562	1203.082397460938	-46.4444084167478	1353.16845703125	1000.818176269531	-103.1956329345701	1317.16943359375	932.2508544921876	-86.93949890136695	1361.68701171875	940.0291137695314	-107.9408874511716	1385.879638671875	839.4122314453126	-119.2122726440427	1435.16796875	838.1352539062501	-56.84127426147435	1370.987060546875	1409.784301757812	399.9924621582034	1366.19140625	1265.524047851562	506.4868469238284	1394.692993164062	1206.1181640625	513.4094848632815	1346.760986328125	1208.0576171875	531.9551391601565	1419.111450195312	992.6632690429689	560.872253417969	1490.414794921875	959.0476074218751	572.992614746094	1448.043090820312	937.2723388671876	557.6904907226565	1509.811645507812	870.7163696289064	557.0878906250002	1541.112060546875	872.1123046875001	482.4425964355472	
283	1.41	1526.43505859375	1596.961669921875	240.7646942138675	1479.457885742188	1627.026123046875	306.7032775878909	1484.809326171875	1625.070068359375	168.1428375244143	1290.109375	1450.642578125	233.774841308594	1231.213012695312	1279.902221679688	234.7294158935549	1223.670166015625	1239.192138671875	214.7549285888674	1221.907958984375	1232.106689453125	264.6237792968752	1231.396484375	1174.929443359375	231.3430175781252	1256.151245117188	1109.203491210938	232.5199279785159	1220.733642578125	1073.551025390625	217.3846130371096	1222.674926757812	1071.35693359375	267.5932617187502	1218.881958007812	1011.139587402344	238.5167083740237	1237.397094726562	963.9443969726564	207.3435516357424	1237.826049804688	960.0481567382814	258.7332153320315	1224.480834960938	902.4991455078126	228.9037017822268	1425.410522460938	692.0014038085939	18.0950660705569	1401.386108398438	619.3444213867189	38.15043258667018	1446.810913085938	635.7570190429689	24.86792564392116	1426.136352539062	397.7726440429689	20.88486480712917	1356.730102539062	364.8012084960938	41.75058364868189	1401.6298828125	342.5873107910157	34.89982223510768	1261.729858398438	206.2133331298829	144.3255615234377	1441.903198242188	80.24329376220712	137.545593261719	1385.401977539062	74.91187286376962	47.0255966186526	1312.465576171875	696.6138916015626	400.2058715820315	1366.064331054688	639.0284423828126	404.1417541503909	1318.876831054688	637.1750488281251	388.0479736328127	1273.688842773438	345.8681030273438	367.6016540527346	1302.956665039062	272.9848327636719	364.1031188964846	1257.589111328125	287.8836975097657	350.3846130371096	1215.663696289062	78.24175262451179	234.3618469238284	1426.779541015625	46.85067367553719	240.6870117187503	1373.699951171875	39.50059127807626	342.0891418457034	1460.44384765625	1351.98046875	228.7171173095706	1476.044311523438	1208.668334960938	227.8061065673831	1359.231201171875	1413.357299804688	57.43154907226587	1343.03515625	1260.13330078125	-45.18511581420874	1326.8291015625	1199.01611328125	-64.30863952636695	1375.32666015625	1202.5400390625	-46.87167358398412	1356.095825195312	1000.4755859375	-103.3637619018552	1319.466918945312	932.2648315429689	-86.93551635742163	1363.929931640625	939.5670166015626	-108.1743011474607	1386.962524414062	838.7206420898439	-119.647392272949	1436.474731445312	836.8036499023439	-57.503910064697	1377.4775390625	1409.929809570312	399.5843200683596	1373.0732421875	1265.962524414062	506.3784484863284	1401.801879882812	1206.694091796875	513.4431152343752	1353.86669921875	1208.47900390625	531.9689941406252	1428.202392578125	993.5327758789064	560.8525390625002	1500.011352539062	960.8296508789064	572.4477539062502	1457.835205078125	938.5699462890626	557.3563232421877	1520.4638671875	872.7864990234376	556.1090087890627	1551.599487304688	875.0411987304689	481.3954772949222	
284	1.415	1533.12353515625	1596.766845703125	240.031921386719	1486.16259765625	1626.968627929688	305.9228820800784	1491.494262695312	1624.75	167.3662567138675	1296.700561523438	1450.572143554688	233.3281250000002	1237.621704101562	1279.927001953125	234.3509063720705	1230.086303710938	1239.226684570312	214.3654632568362	1228.162841796875	1232.15283203125	264.2294006347659	1237.603149414062	1174.975952148438	230.9733581542971	1262.280151367188	1109.208374023438	232.1323547363284	1226.945434570312	1073.713256835938	216.5413208007815	1228.612915039062	1071.493530273438	266.761657714844	1224.824951171875	1011.284545898438	237.6133728027346	1243.458251953125	964.0391845703126	206.6447753906252	1243.61962890625	960.1869506835939	258.0282287597659	1230.407104492188	902.6179199218751	228.189392089844	1433.91796875	692.6007080078126	18.04030418396022	1410.276245117188	619.6723022460939	37.48488998413112	1455.740234375	636.5302734375001	24.9975719451907	1438.2490234375	395.880828857422	21.30585098266628	1369.817993164062	360.8611145019532	42.05516052246119	1415.290161132812	339.9240722656251	34.98637390136745	1279.330810546875	198.5559997558595	143.402038574219	1463.90576171875	79.2087936401368	136.5527801513674	1407.684936523438	72.04515075683602	45.9169540405276	1316.052368164062	696.9921875000001	400.0423889160159	1369.15283203125	638.9711303710939	404.1791076660159	1322.0078125	637.5200195312501	387.8935852050784	1275.001708984375	346.3327331542969	367.3441162109377	1303.938720703125	273.3275756835938	363.8734130859377	1258.64453125	288.4303588867188	350.1545104980471	1215.982177734375	78.84861755371101	234.0878753662112	1426.811401367188	46.74895095825204	240.5545806884768	1373.726318359375	39.54685211181649	342.0296325683596	1466.90283203125	1351.708984375	228.4031982421878	1482.334716796875	1208.367309570312	227.7993927001956	1365.701293945312	1413.00830078125	57.03678894042994	1348.238159179688	1259.731201171875	-45.49993515014624	1331.587036132812	1198.691650390625	-64.50185394287085	1380.180297851562	1201.944946289062	-47.31160736083959	1359.042724609375	1000.094970703125	-103.5359344482419	1321.805297851562	932.2404174804689	-86.92013549804663	1366.20458984375	939.0747070312501	-108.4035720825193	1388.091796875	838.0145874023439	-120.0632553100583	1437.847412109375	835.4804077148439	-58.16912841796849	1383.962646484375	1410.004272460938	399.1621093750002	1379.935913085938	1266.326049804688	506.2432556152346	1408.8955078125	1207.20263671875	513.4543457031252	1360.949584960938	1208.824462890625	531.9448242187502	1437.274169921875	994.3554077148439	560.8005981445315	1509.568115234375	962.5671997070314	571.881042480469	1467.603393554688	939.8295288085939	556.986999511719	1531.070068359375	874.8289184570314	555.1065673828127	1562.03076171875	877.9365234375001	480.3312988281253	
285	1.42	1539.8115234375	1596.518188476562	239.2870941162112	1492.862060546875	1626.852783203125	305.128356933594	1498.177001953125	1624.36865234375	166.5761566162112	1303.30126953125	1450.433227539062	232.8591308593752	1244.036254882812	1279.8876953125	233.9428405761721	1236.509765625	1239.196411132812	213.9432678222659	1234.420654296875	1232.134399414062	263.8025512695315	1243.802124023438	1174.960205078125	230.5700988769534	1268.410766601562	1109.14697265625	231.7135162353518	1233.161376953125	1073.8125	215.6766815185549	1234.56298828125	1071.568481445312	265.9086608886721	1230.776611328125	1011.368896484375	236.6985168457034	1249.506225585938	964.0794067382814	205.9369201660159	1249.407958984375	960.2808227539064	257.3146667480471	1236.295043945312	902.6893310546876	227.479934692383	1442.278076171875	693.0919189453126	18.02062797546413	1419.050415039062	619.9071655273439	36.94019699096706	1464.532592773438	637.1879882812501	25.1915416717532	1450.295166015625	393.8933715820314	21.72458648681667	1382.923217773438	356.8190917968751	42.37158584594752	1428.93359375	337.1968078613282	35.06220245361354	1297.18896484375	190.8830718994141	142.4314727783205	1485.926879882812	78.32816314697274	135.500900268555	1430.05224609375	69.36389160156259	44.74487686157253	1319.712646484375	697.3046264648439	399.8796081542971	1372.328979492188	638.8602294921876	404.168640136719	1325.216796875	637.8032226562501	387.7272033691409	1276.393310546875	346.7615661621094	367.0736389160159	1304.995361328125	273.6330261230469	363.6062927246096	1259.76953125	288.9412231445313	349.9119567871096	1216.306396484375	79.43687438964851	233.787536621094	1426.842529296875	46.6370277404786	240.3950805664065	1373.76171875	39.59785842895516	341.9549865722659	1473.373901367188	1351.360473632812	228.0816345214847	1488.631469726562	1207.98974609375	227.7862091064456	1372.19921875	1412.592407226562	56.62680816650415	1353.460327148438	1259.276245117188	-45.82480621337866	1336.361328125	1198.322509765625	-64.7061614990232	1385.047973632812	1201.296997070312	-47.76227951049779	1362.01318359375	999.6746826171876	-103.7114944458005	1324.18798828125	932.1759033203126	-86.89287567138648	1368.51416015625	938.5512695312501	-108.6285095214841	1389.271118164062	837.2918701171876	-120.4603042602537	1439.290161132812	834.1623535156251	-58.83790206909153	1390.442626953125	1410.007446289062	398.726257324219	1386.780029296875	1266.61328125	506.0817871093752	1415.9755859375	1207.642578125	513.442321777344	1368.011474609375	1209.0927734375	531.883239746094	1446.325561523438	995.1296386718751	560.715270996094	1519.083984375	964.2581176757814	571.2913208007815	1477.3447265625	941.0490112304689	556.5814208984377	1541.628540039062	876.8414916992189	554.0803222656252	1572.402954101562	880.7935791015626	479.2494812011722	
